<svg xmlns="http://www.w3.org/2000/svg" width="249.602" height="205.065" viewBox="0 0 249.602 205.065">
  <g id="Sterling_Bank_Plc_Logo" data-name="Sterling Bank Plc Logo" transform="translate(-10.008 -97.419)">
    <path id="Path_5196" data-name="Path 5196" d="M385.5,156.91a59.437,59.437,0,1,1-59.327-59.49A59.365,59.365,0,0,1,385.5,156.91Zm-57.089-23.475a17.362,17.362,0,1,0,17.446-17.474A17.4,17.4,0,0,0,328.415,133.435Z" transform="translate(-191.264 0)" fill="#ffffff"/>
    <path id="Path_5197" data-name="Path 5197" d="M876.647,699.044c-.2-.066-.255-.023-.316.079a9.176,9.176,0,0,1-6.456,4.35,16.052,16.052,0,0,1-13.2-2.9,14.007,14.007,0,0,1-5.6-9.737,20.349,20.349,0,0,1,1.813-11.792,17.391,17.391,0,0,1,12.627-9.818,20.367,20.367,0,0,1,7.131-.357,14.37,14.37,0,0,1,12.169,9.561,15.717,15.717,0,0,1,1.172,5.9c-.043,5.962.211,11.917.316,17.877a18.448,18.448,0,0,1-1.182,6.894,16.35,16.35,0,0,1-10.544,10.2,21.627,21.627,0,0,1-12.755.331,13.235,13.235,0,0,1-4.312-2.015,7.161,7.161,0,0,1-3.311-6.454c.046-.983,0-1.971.013-2.957,0-.194.043-.4.242-.461a.509.509,0,0,1,.509.186,11.275,11.275,0,0,0,3.023,2.038,18.607,18.607,0,0,0,4.824,1.485,23.318,23.318,0,0,0,5.15.285,12.3,12.3,0,0,0,4.113-.851,7.126,7.126,0,0,0,4.528-5.511,12.929,12.929,0,0,0,.2-4.075C876.72,700.549,876.7,699.772,876.647,699.044Zm-.181-12.734a11.7,11.7,0,0,0-.889-5.15,6.452,6.452,0,0,0-6.657-3.968,7.922,7.922,0,0,0-6.815,4.3,10.932,10.932,0,0,0-.718,9.36,7.255,7.255,0,0,0,8.8,4.691,7.437,7.437,0,0,0,5.585-5.035,11.458,11.458,0,0,0,.69-4.192Z" transform="translate(-626.699 -425.785)" fill="#ffffff"/>
    <path id="Path_5198" data-name="Path 5198" d="M42.794,641.625c-.351-.03-.509-.293-.705-.479a15.836,15.836,0,0,0-9.125-3.988,24.932,24.932,0,0,0-6.176.013,11.97,11.97,0,0,0-4.047,1.123,5.177,5.177,0,0,0-3.031,5.124,3.752,3.752,0,0,0,1.347,2.832,8.343,8.343,0,0,0,2.155,1.314,31.686,31.686,0,0,0,5.486,1.75c1.594.382,3.2.713,4.786,1.149a18.307,18.307,0,0,1,5.957,2.8,10.769,10.769,0,0,1,4.712,7.546c.858,7.055-1.951,13.827-9.711,16.664a25.408,25.408,0,0,1-10.819,1.289,22.558,22.558,0,0,1-5.387-.968,13.579,13.579,0,0,1-3.418-1.615,8.1,8.1,0,0,1-3.752-6.877c-.028-1.314,0-2.628,0-3.943,0-.293.239-.418.466-.255.3.224.583.474.879.7A20.06,20.06,0,0,0,27.6,669.993a12.732,12.732,0,0,0,3.548-.848,5.126,5.126,0,0,0,2.85-2.588,7.046,7.046,0,0,0,.323-4.684,3.466,3.466,0,0,0-1.411-1.879,9.514,9.514,0,0,0-2.364-1.235,45.687,45.687,0,0,0-6.622-1.849,35.155,35.155,0,0,1-5.01-1.391,16.936,16.936,0,0,1-5-2.822,10.539,10.539,0,0,1-3.861-9.37c.545-6.548,4.185-10.868,10.078-13.427a18.065,18.065,0,0,1,6.558-1.454,29.336,29.336,0,0,1,8.114.594,14.636,14.636,0,0,1,4.174,1.638,8.213,8.213,0,0,1,3.194,3.288,5.661,5.661,0,0,1,.716,2.412c.043,1.64.056,3.283.069,4.926A.753.753,0,0,1,42.794,641.625Z" transform="translate(0 -395.748)" fill="#ffffff"/>
    <path id="Path_5199" data-name="Path 5199" d="M283.528,692.889H278.32c-.53,0-.67.183-.558.7a8.055,8.055,0,0,0,1.717,3.5,10.3,10.3,0,0,0,5.858,3.387,18.824,18.824,0,0,0,5.746.194,19.134,19.134,0,0,0,4.271-.84,13.325,13.325,0,0,0,4.551-2.458c.29-.255.578-.117.578.242a24.776,24.776,0,0,1-.143,4.075,6.936,6.936,0,0,1-2.982,4.742,11.643,11.643,0,0,1-4.533,1.836,26.738,26.738,0,0,1-8.675.413,18.846,18.846,0,0,1-15.707-13.7,21.486,21.486,0,0,1-.652-7.386,26.205,26.205,0,0,1,1.25-6.471,17.912,17.912,0,0,1,7.386-9.64,18.464,18.464,0,0,1,7.926-2.667,16.494,16.494,0,0,1,8.659,1.235,14.072,14.072,0,0,1,8.535,10.312,12.993,12.993,0,0,1,.171,5.17,6.978,6.978,0,0,1-3.128,4.8A12.9,12.9,0,0,1,294.431,692a34.886,34.886,0,0,1-6.833.836c-1.36.041-2.72,0-4.075,0Zm-1.141-6.769a45.533,45.533,0,0,0,6.008-.293,10.925,10.925,0,0,0,2.845-.726,2.626,2.626,0,0,0,1.683-2.532,5.11,5.11,0,0,0-3.056-5.094,9.443,9.443,0,0,0-6.319-.509,7.7,7.7,0,0,0-5.221,4.722,11.143,11.143,0,0,0-.746,3.566c-.066.736.013.843.716.851C279.606,686.129,280.918,686.119,282.387,686.119Z" transform="translate(-192.07 -425.768)" fill="#ffffff"/>
    <path id="Path_5200" data-name="Path 5200" d="M728.707,695.274v11.543c-.023,1.062-.041,1.085-1.123,1.1a14.433,14.433,0,0,1-3.362-.222,6.11,6.11,0,0,1-4.857-4.383,7.781,7.781,0,0,1-.188-2.239V686.844a18.064,18.064,0,0,0-.474-4.33,8.462,8.462,0,0,0-.881-2.216,5.9,5.9,0,0,0-3.156-2.677,8.469,8.469,0,0,0-5.124-.3,6,6,0,0,0-3.584,2.547,8.561,8.561,0,0,0-1.363,3.66,22.672,22.672,0,0,0-.214,3.087q.018,9.862,0,19.718c0,1.721.112,1.576-1.615,1.576a13.59,13.59,0,0,1-2.8-.184,5.939,5.939,0,0,1-5.035-5.465,14.928,14.928,0,0,1-.071-1.546v-15.07a18.932,18.932,0,0,1,.828-5.973,14.921,14.921,0,0,1,9.989-10.091,19.3,19.3,0,0,1,11.507-.3c6.069,1.75,9.678,5.82,11.069,11.927a22.1,22.1,0,0,1,.453,4.768C728.72,689.075,728.707,692.174,728.707,695.274Z" transform="translate(-510.427 -425.669)" fill="#ffffff"/>
    <path id="Path_5201" data-name="Path 5201" d="M169.874,659.7V648.01a14.685,14.685,0,0,1,.122-2.246,10.563,10.563,0,0,1,4.839-7.116,5.957,5.957,0,0,1,4.075-.723.453.453,0,0,1,.425.476c.018.329.018.657.018.986v6.619a.479.479,0,0,0,.509.54c.377,0,.751.015,1.126.015H191.7c.914.021.935.036.95.965v2.394a4.814,4.814,0,0,1-4.35,5.017,15.658,15.658,0,0,1-2.106.13c-1.737.018-3.474,0-5.211,0h-.986c-.456.025-.6.16-.632.576-.02.28-.015.563-.015.846V669.87a11.665,11.665,0,0,0,.339,3.209,4.748,4.748,0,0,0,4.526,3.79,14.771,14.771,0,0,0,7.72-1.075c.522-.255.7-.135.708.413,0,1.019.038,2.068,0,3.1a5.69,5.69,0,0,1-3.6,5.269,8.6,8.6,0,0,1-2.707.728,19.917,19.917,0,0,1-7.809-.627,11.3,11.3,0,0,1-8.076-8.428,18.309,18.309,0,0,1-.591-4.737V659.68Z" transform="translate(-119.139 -402.803)" fill="#ffffff"/>
    <path id="Path_5202" data-name="Path 5202" d="M526.11,642.875V623.167c0-1.35-.043-1.3,1.314-1.291.706,0,1.408,0,2.111.015a7.062,7.062,0,0,1,2.335.464,5.407,5.407,0,0,1,3.565,4.034,10.379,10.379,0,0,1,.24,2.514v30.685c0,.657,0,1.317.043,1.969a3.848,3.848,0,0,0,3.084,3.718,9.521,9.521,0,0,0,2.5.326c.94,0,1.877,0,2.817.015.313,0,.558.122.568.474a12.565,12.565,0,0,1-.255,3.775,4.33,4.33,0,0,1-2.819,3.089,7.861,7.861,0,0,1-2.037.461,16.251,16.251,0,0,1-6.258-.649,9.679,9.679,0,0,1-6.877-7.814,17.474,17.474,0,0,1-.311-3.64Q526.112,652.094,526.11,642.875Z" transform="translate(-384.656 -390.882)" fill="#ffffff"/>
    <path id="Path_5203" data-name="Path 5203" d="M433.266,697.234v10.99c0,1.273-.015,1.273-1.225,1.273a15.929,15.929,0,0,1-3.645-.255,5.513,5.513,0,0,1-4.467-3.82,7.437,7.437,0,0,1-.323-2.221c0-5.916-.028-11.833.018-17.749a17.263,17.263,0,0,1,1.528-7.249,12.289,12.289,0,0,1,9.678-7.292,15.029,15.029,0,0,1,5.6.023,7.636,7.636,0,0,1,2.483.952,5.692,5.692,0,0,1,2.855,4.885c.036.937.018,1.877,0,2.817,0,.683-.183.79-.879.571-.313-.1-.619-.222-.932-.321a12.826,12.826,0,0,0-5.565-.489,5.2,5.2,0,0,0-4.419,3.451,8.344,8.344,0,0,0-.616,2.736c-.046,1.077-.084,2.157-.087,3.237C433.258,691.593,433.266,694.41,433.266,697.234Z" transform="translate(-308.253 -427.243)" fill="#ffffff"/>
    <path id="Path_5204" data-name="Path 5204" d="M613.57,689.521V676.56c0-1.25,0-1.253,1.215-1.273a16.592,16.592,0,0,1,3.367.2,5.616,5.616,0,0,1,4.684,4.48,11.635,11.635,0,0,1,.293,2.8q-.018,8.453,0,16.906c0,.609-.015,1.222.043,1.829a3.728,3.728,0,0,0,3.242,3.7,15.676,15.676,0,0,0,3.082.2c1.255,0,1.25-.013,1.243,1.238a14.214,14.214,0,0,1-.227,3.082,4.03,4.03,0,0,1-3.24,3.311,9.048,9.048,0,0,1-1.808.234,15.416,15.416,0,0,1-4.46-.51,9.314,9.314,0,0,1-6.841-6.81,15.608,15.608,0,0,1-.6-4.452v-11.97Z" transform="translate(-449.839 -430.68)" fill="#ffffff"/>
    <path id="Path_5205" data-name="Path 5205" d="M610.258,623.149a5.552,5.552,0,0,1,5.537-5.539,5.593,5.593,0,1,1,.053,11.186,5.552,5.552,0,0,1-5.59-5.646Z" transform="translate(-447.373 -387.704)" fill="#ffffff"/>
    <path id="Path_5206" data-name="Path 5206" d="M592.9,871.272a9.26,9.26,0,0,1,.764-.662,2.845,2.845,0,0,1,4.584,1.729,6.717,6.717,0,0,1,.135.975c.015,1.36,0,2.723,0,4.075,0,.283,0,.6-.372.657a.828.828,0,0,1-.843-.395,1.412,1.412,0,0,1-.161-.817v-3.1a3.74,3.74,0,0,0-.27-1.513,1.447,1.447,0,0,0-1.6-.889,1.417,1.417,0,0,0-1.464,1.08,7.332,7.332,0,0,0-.161,1.528c-.023,1.128,0,2.254,0,3.382,0,.275.031.593-.3.716a.838.838,0,0,1-1-.568,4.807,4.807,0,0,1-.092-.975c-.013-.846,0-1.691-.013-2.547a6.727,6.727,0,0,0-.158-1.393,1.564,1.564,0,0,0-1.653-1.238,1.5,1.5,0,0,0-1.528,1.207,4.865,4.865,0,0,0-.161,1.528c0,1.174,0,2.348-.021,3.522a.466.466,0,0,1-.685.418,1.046,1.046,0,0,1-.675-1.115c0-1.222-.028-2.443.018-3.662a3.992,3.992,0,0,1,.318-1.36,3.107,3.107,0,0,1,3.993-1.668A4.876,4.876,0,0,1,592.9,871.272Z" transform="translate(-430.208 -575.791)" fill="#ffffff"/>
    <path id="Subtraction_6" data-name="Subtraction 6" d="M4.542,10.305H4.435A4.321,4.321,0,0,1,.289,7.115a6.571,6.571,0,0,1,.1-4.142A4.179,4.179,0,0,1,4.631,0c.1,0,.206,0,.311.007a4.182,4.182,0,0,1,3.9,3.272,6.6,6.6,0,0,1,.224,2.078A7.728,7.728,0,0,1,8.7,7.289,4.273,4.273,0,0,1,4.542,10.305ZM4.529,1.211c-.073,0-.146,0-.218.006H4.29a3.492,3.492,0,0,0-.556.075A2.786,2.786,0,0,0,1.6,3.351a4.485,4.485,0,0,0-.237,1.656,5.219,5.219,0,0,0,.255,1.8,2.921,2.921,0,0,0,3,2.241h.033A2.876,2.876,0,0,0,7.511,6.815a6.082,6.082,0,0,0,0-3.311A2.842,2.842,0,0,0,4.585,1.213Z" transform="translate(87.471 292.125)" fill="#ffffff"/>
    <path id="Subtraction_2" data-name="Subtraction 2" d="M3.123,10.262a7.078,7.078,0,0,1-1.748-.219A1.738,1.738,0,0,1,.028,8.415,5.926,5.926,0,0,1,0,7.712v-6.2C0,.408.012.4,1.146.176A9.982,9.982,0,0,1,4.51.113,2.519,2.519,0,0,1,6.838,2.949a2.027,2.027,0,0,1-.614,1.378,1.517,1.517,0,0,1-.217.17.829.829,0,0,0-.374.416.633.633,0,0,0,.341.367c.046.028.094.057.138.089a2.264,2.264,0,0,1,.96,1.842,2.928,2.928,0,0,1-1.09,2.3,2.783,2.783,0,0,1-.861.461A7.054,7.054,0,0,1,3.123,10.262ZM2.3,5.5c-.414,0-.648.024-.776.153-.16.161-.158.488-.154,1.138v.271c0,.069,0,.137,0,.206v.385a2.449,2.449,0,0,0,0,.281c.056.533.25.827.628.955a1.22,1.22,0,0,0,.19.05,4.583,4.583,0,0,0,2.486-.13A1.549,1.549,0,0,0,5.666,7a1.28,1.28,0,0,0-.734-1.2,1.955,1.955,0,0,0-.458-.143A9.635,9.635,0,0,0,2.806,5.5l-.144,0Zm.907-4.276c-.119,0-.24.005-.359.015-.223.007-.372.014-.5.023-.92.06-.993.283-.993,1.509,0,.111,0,.215,0,.312C1.35,4.368,1.35,4.368,2.639,4.393l.308.007c.307-.011.636-.037.976-.078.18-.021.361-.045.537-.072A1.414,1.414,0,0,0,4.7,4.177a1.32,1.32,0,0,0,.8-1.266,1.333,1.333,0,0,0-.861-1.447A4.322,4.322,0,0,0,3.209,1.223Z" transform="translate(187.091 292.124)" fill="#ffffff"/>
    <path id="Subtraction_7" data-name="Subtraction 7" d="M3.844,8.252A3.72,3.72,0,0,1,.3,5.828,4.716,4.716,0,0,1,.743,1.634,3.349,3.349,0,0,1,5.289.445,2.669,2.669,0,0,1,6.642,3.17a1.425,1.425,0,0,1-.859,1.2A3.9,3.9,0,0,1,4.194,4.7H4.138c-.738,0-1.5,0-2.252.031a.374.374,0,0,0-.33.494,2.292,2.292,0,0,0,2.164,1.7c.107.008.2.013.3.013a5.392,5.392,0,0,0,2.239-.664,1.183,1.183,0,0,1-.7,1.563A3.74,3.74,0,0,1,3.844,8.252ZM2.363,3.6h.028l.334,0c.171,0,.369,0,.613,0l.21-.011a11.005,11.005,0,0,0,1.13-.094.718.718,0,0,0,.628-.849q0-.042-.008-.085A1.3,1.3,0,0,0,4.4,1.4a2.645,2.645,0,0,0-.843-.14,2.022,2.022,0,0,0-2.03,1.584,1.157,1.157,0,0,0-.047.3c0,.286.173.426.543.442.115,0,.231.005.339.005Z" transform="translate(106.663 294.229)" fill="#ffffff"/>
    <path id="Subtraction_3" data-name="Subtraction 3" d="M3.763,8.214A3.607,3.607,0,0,1,.1,5.1,4.606,4.606,0,0,1,.7,1.715,3.467,3.467,0,0,1,3.648,0a3.208,3.208,0,0,1,1.2.233A2.779,2.779,0,0,1,6.665,2.394,1.7,1.7,0,0,1,5.346,4.536,7.107,7.107,0,0,1,4.238,4.7c-.251.013-.5.014-.774.014H3.281c-.26,0-.5,0-.732.014-.07,0-.143-.007-.221-.014S2.17,4.7,2.093,4.7a.457.457,0,0,0-.445.217c-.224.417.048.806.321,1.138a2.409,2.409,0,0,0,1.981.887,4.181,4.181,0,0,0,.425-.023,4.874,4.874,0,0,0,1.966-.734,1.464,1.464,0,0,1-1.088,1.8A5.253,5.253,0,0,1,3.763,8.214ZM3.545,1.25a2,2,0,0,0-.63.1,2.18,2.18,0,0,0-1.4,2.184,11.8,11.8,0,0,0,1.465.092,11.852,11.852,0,0,0,1.583-.107A.874.874,0,0,0,5.27,3.1a1,1,0,0,0-.054-.924,1.517,1.517,0,0,0-.926-.8A2.453,2.453,0,0,0,3.545,1.25Z" transform="translate(169.943 294.22)" fill="#ffffff"/>
    <path id="Subtraction_1" data-name="Subtraction 1" d="M3.062,8.23a3.952,3.952,0,0,1-1.533-.308A2.17,2.17,0,0,1,0,5.788a2.229,2.229,0,0,1,1.5-2.17,5.374,5.374,0,0,1,1.218-.311,7.487,7.487,0,0,1,.826-.064c.146-.006.3-.012.448-.023a.752.752,0,0,0,.576-.229.7.7,0,0,0,.06-.576A1.239,1.239,0,0,0,3.48,1.354,3.656,3.656,0,0,0,1.157,1.7a1.634,1.634,0,0,0-.222.145.859.859,0,0,1-.527.222H.368A1.177,1.177,0,0,1,.821.727,3.323,3.323,0,0,1,3.022,0,3.346,3.346,0,0,1,5.151.676a2.2,2.2,0,0,1,.841,1.571,36.942,36.942,0,0,1,0,3.793,2.09,2.09,0,0,1-1.446,1.9A3.958,3.958,0,0,1,3.062,8.23Zm.819-3.824H3.515A2.636,2.636,0,0,0,1.9,4.776a1.105,1.105,0,0,0-.164,1.7,1.881,1.881,0,0,0,1.286.5,2.689,2.689,0,0,0,.81-.136c.733-.233.842-.86.851-1.442V4.972c-.018-.287-.083-.42-.24-.492a1.034,1.034,0,0,0-.382-.073H4Z" transform="translate(195.772 294.211)" fill="#ffffff"/>
    <path id="Path_5212" data-name="Path 5212" d="M805.8,865.731c.509-.056.624-.336.81-.532.578-.611,1.149-1.235,1.724-1.849a1.783,1.783,0,0,1,1.994-.509c0,.326-.255.423-.4.581-.685.705-1.393,1.391-2.063,2.109-.861.922-.861.764-.033,1.824a10.881,10.881,0,0,0,2.534,2.6c.2.127.115.481-.112.576a1.286,1.286,0,0,1-1.442-.206,11.921,11.921,0,0,1-1.065-1.116c-.489-.568-.952-1.159-1.426-1.739a.3.3,0,0,0-.354-.12c-.183.064-.153.224-.155.351-.018.843-.015,1.686-.041,2.529a.428.428,0,0,1-.616.346.779.779,0,0,1-.565-.568,4.347,4.347,0,0,1-.089-.835q0-4.144,0-8.3v-.28c.015-.288.033-.586.413-.609a.728.728,0,0,1,.782.471,2.565,2.565,0,0,1,.1.828v3.094Z" transform="translate(-592.144 -568.348)" fill="#ffffff"/>
    <path id="Subtraction_5" data-name="Subtraction 5" d="M3.67,8.18A3.377,3.377,0,0,1,.537,6.323,4.814,4.814,0,0,1,.7,1.608,3.153,3.153,0,0,1,3.6,0c.062,0,.126,0,.189,0A3.271,3.271,0,0,1,6.8,1.994a4.6,4.6,0,0,1,.415,2.113,4.447,4.447,0,0,1-.291,1.719,3.18,3.18,0,0,1-2.87,2.335C3.926,8.174,3.8,8.18,3.67,8.18ZM3.576,1.3a2,2,0,0,0-1.682.852A3.287,3.287,0,0,0,1.39,4a3.365,3.365,0,0,0,.663,2.128,2.11,2.11,0,0,0,1.653.793,2.078,2.078,0,0,0,.348-.029,1.888,1.888,0,0,0,1.589-1.4,3.827,3.827,0,0,0,.184-1.064c0-.083,0-.167,0-.25a3.323,3.323,0,0,0-.4-1.821A2.1,2.1,0,0,0,3.576,1.3Z" transform="translate(61.545 294.231)" fill="#ffffff"/>
    <path id="Subtraction_4" data-name="Subtraction 4" d="M3.622,8.175A3.372,3.372,0,0,1,.678,6.594,4.914,4.914,0,0,1,.892,1.282,3.391,3.391,0,0,1,3.595,0,3.475,3.475,0,0,1,6.709,1.822a5.037,5.037,0,0,1,.5,2.216A4.865,4.865,0,0,1,6.87,5.922a3.157,3.157,0,0,1-2.8,2.231C3.917,8.168,3.766,8.175,3.622,8.175ZM3.559,1.3A1.994,1.994,0,0,0,1.9,2.122a3.347,3.347,0,0,0-.53,1.9A3.327,3.327,0,0,0,2.012,6.1a2.266,2.266,0,0,0,1.738.823A1.925,1.925,0,0,0,5.616,5.527a3.683,3.683,0,0,0,.212-1.3c0-.053,0-.107,0-.16a3.672,3.672,0,0,0-.471-1.8A2.1,2.1,0,0,0,3.559,1.3Z" transform="translate(148.031 294.225)" fill="#ffffff"/>
    <path id="Path_5215" data-name="Path 5215" d="M247.677,873.392v-1.969c0-.255.054-.484.323-.553a.776.776,0,0,1,.667.135.831.831,0,0,1,.336.591c.033.326.051.652.053.98,0,.749-.015,1.5.013,2.249a5.861,5.861,0,0,0,.178,1.385,1.805,1.805,0,0,0,2.313,1.273,1.452,1.452,0,0,0,1.075-1.019,5.14,5.14,0,0,0,.193-1.528v-3.515c0-.234,0-.489.3-.553a.741.741,0,0,1,.665.138,1.115,1.115,0,0,1,.306.453,2.242,2.242,0,0,1,.109.688v3.374a4.134,4.134,0,0,1-.061.558,3.192,3.192,0,0,1-4.5,2.572,2.883,2.883,0,0,1-1.783-2.037,7.837,7.837,0,0,1-.211-1.528c-.036-.56,0-1.123,0-1.686Z" transform="translate(-177.108 -576.441)" fill="#ffffff"/>
    <path id="Path_5216" data-name="Path 5216" d="M441.962,863.975c-.3,0-.469-.27-.7-.4a3.5,3.5,0,0,0-5.2,2.256,4.635,4.635,0,0,0,.318,3.023,3.438,3.438,0,0,0,4.235,1.852,4.905,4.905,0,0,0,1.123-.57.255.255,0,0,1,.234,0,.341.341,0,0,1,.076.255,1.648,1.648,0,0,1-.8,1.258,2.868,2.868,0,0,1-1.039.41,4.549,4.549,0,0,1-4.76-2.012,5.517,5.517,0,0,1-.138-5.881,4.582,4.582,0,0,1,4.91-2.269,2.147,2.147,0,0,1,1.8,1.4A.69.69,0,0,1,441.962,863.975Z" transform="translate(-316.394 -569.725)" fill="#ffffff"/>
    <path id="Path_5217" data-name="Path 5217" d="M777.462,875.458v2.109c0,.282-.018.581-.408.611a.734.734,0,0,1-.812-.422,2.333,2.333,0,0,1-.132-.823c-.018-.937,0-1.875-.015-2.8a8.284,8.284,0,0,0-.12-1.4,1.537,1.537,0,0,0-1.482-1.274,1.7,1.7,0,0,0-1.91.856,2.817,2.817,0,0,0-.285,1.36v3.377a5.809,5.809,0,0,1-.046.841c-.036.206-.222.275-.423.28a.764.764,0,0,1-.764-.509,1.932,1.932,0,0,1-.117-.683q-.015-1.757,0-3.515a3.456,3.456,0,0,1,4.885-3.033,2.629,2.629,0,0,1,1.528,2.206c.1.927.1,1.869.15,2.8Z" transform="translate(-567.132 -575.905)" fill="#ffffff"/>
    <path id="Path_5218" data-name="Path 5218" d="M469.71,873.533v-2.246c0-.311.272-.466.586-.4a.843.843,0,0,1,.713.764,9.1,9.1,0,0,1,.051,1.118c.018.983-.013,1.969.051,2.949a1.842,1.842,0,0,0,1.345,1.783,1.678,1.678,0,0,0,2.211-1.159,4.877,4.877,0,0,0,.13-1.251c.018-1.169,0-2.34.015-3.512,0-.27-.038-.588.331-.677a.8.8,0,0,1,.919.464,1.09,1.09,0,0,1,.107.4c0,1.406.074,2.8-.023,4.213A2.946,2.946,0,0,1,473,878.891a3.027,3.027,0,0,1-3.25-2.832,21.976,21.976,0,0,1-.018-2.527Z" transform="translate(-342.614 -576.46)" fill="#ffffff"/>
    <path id="Path_5219" data-name="Path 5219" d="M363.359,875.291c0,.846.015,1.689,0,2.532,0,.288-.255.372-.509.341a.783.783,0,0,1-.782-.675,5.421,5.421,0,0,1-.049-.84v-2.534a9.724,9.724,0,0,0-.025-.983,1.865,1.865,0,0,0-2.8-1.505,1.566,1.566,0,0,0-.856,1.217,8.7,8.7,0,0,0-.071,1.274v3.377c0,.277,0,.588-.354.67a.8.8,0,0,1-.914-.481,1.823,1.823,0,0,1-.1-.547c0-1.273-.046-2.547,0-3.8.135-3,2.9-3.691,4.73-2.96a2.765,2.765,0,0,1,1.722,2.547c.069.79.013,1.592.013,2.389Z" transform="translate(-258.528 -575.893)" fill="#ffffff"/>
    <path id="Path_5220" data-name="Path 5220" d="M502.388,876.291a7.437,7.437,0,0,0,1.706.677,2.829,2.829,0,0,0,1.656-.112.906.906,0,0,0,.619-.851.833.833,0,0,0-.509-.914c-.476-.186-.973-.324-1.462-.479a8.582,8.582,0,0,1-1.2-.38,1.712,1.712,0,0,1-.9-2.241,2.381,2.381,0,0,1,.568-.958,3.529,3.529,0,0,1,3.92-.571,2.428,2.428,0,0,1,.629.548c.255.3.27.79.084.9-.255.15-.438-.056-.634-.148a3.7,3.7,0,0,0-2.061-.29,1.591,1.591,0,0,0-.889.392.764.764,0,0,0,.122,1.273,6.258,6.258,0,0,0,.922.323c.532.173,1.083.306,1.6.51a2.168,2.168,0,0,1,.471,3.616,3.862,3.862,0,0,1-3.981.29,1.657,1.657,0,0,1-.418-.369,1.338,1.338,0,0,1-.237-.51A3.936,3.936,0,0,1,502.388,876.291Z" transform="translate(-366.821 -575.892)" fill="#ffffff"/>
    <path id="Path_5221" data-name="Path 5221" d="M186.466,862.78a3.1,3.1,0,0,1-.448,1.149,23.558,23.558,0,0,1-2.1,3.311,2.6,2.6,0,0,0-.568,1.813c.036.843,0,1.686,0,2.532,0,.283-.028.586-.4.624a.823.823,0,0,1-.907-.51,2.857,2.857,0,0,1-.079-.693c0-.7-.031-1.406,0-2.109a2.427,2.427,0,0,0-.489-1.561,23.2,23.2,0,0,1-2.333-4.159,2.987,2.987,0,0,1-.237-.657.308.308,0,0,1,.313-.37,1.119,1.119,0,0,1,1.177.593c.255.451.438.932.69,1.38.433.777.886,1.543,1.352,2.292.2.318.428.3.652-.018a23.636,23.636,0,0,0,1.813-3.168,9.675,9.675,0,0,1,.443-.874c.181-.283.476-.255.764-.163a.548.548,0,0,1,.359.586Z" transform="translate(-125.874 -569.947)" fill="#ffffff"/>
    <path id="Path_5222" data-name="Path 5222" d="M533.083,864.852c.308.443-.168,1.146.382,1.406a3.775,3.775,0,0,0,1.383.1h.42c.285,0,.6,0,.611.4a.693.693,0,0,1-.509.764,6.916,6.916,0,0,1-.968.137c-.232.023-.469,0-.7.031s-.453.156-.456.425c0,1.273-.046,2.531.018,3.792a1.193,1.193,0,0,0,1.306,1.187,5.93,5.93,0,0,0,.7-.069c.4-.036.588.2.486.575a.945.945,0,0,1-.652.675,2.351,2.351,0,0,1-3.2-1.824,3.791,3.791,0,0,1-.064-.7v-5.061a2.144,2.144,0,0,1,.435-1.447C532.48,864.987,532.714,864.742,533.083,864.852Z" transform="translate(-388.921 -571.956)" fill="#ffffff"/>
    <path id="Path_5223" data-name="Path 5223" d="M671.552,875.581c0-.609-.028-1.218,0-1.823a3.981,3.981,0,0,1,.464-1.75,2.44,2.44,0,0,1,2.893-1.141,1,1,0,0,1,.716,1.077c0,.183-.082.367-.346.311a5.534,5.534,0,0,0-.825-.153,1.15,1.15,0,0,0-1.4,1.047,8,8,0,0,0-.12,1.393c-.015,1.172,0,2.341,0,3.512,0,.234-.021.479-.283.581a.853.853,0,0,1-.878-.293,1.37,1.37,0,0,1-.234-.795v-1.966Z" transform="translate(-493.047 -576.369)" fill="#ffffff"/>
    <path id="Path_5224" data-name="Path 5224" d="M281.705,875.549v-1.824a3.505,3.505,0,0,1,.545-1.864,2.389,2.389,0,0,1,2.689-1.034,1.019,1.019,0,0,1,.741.588.789.789,0,0,1,.061.678c-.145.285-.395.13-.609.081a2.925,2.925,0,0,0-.415-.079c-1.006-.076-1.48.3-1.592,1.322-.059.558-.036,1.123-.041,1.684,0,1.019,0,2.058-.025,3.087,0,.364-.288.532-.705.423a.81.81,0,0,1-.644-.815c-.023-.749,0-1.5,0-2.246Z" transform="translate(-202.495 -576.359)" fill="#ffffff"/>
    <path id="Path_5225" data-name="Path 5225" d="M509.217,187.694a17.362,17.362,0,1,1,17.359,17.362A17.539,17.539,0,0,1,509.217,187.694Z" transform="translate(-372.066 -54.259)" fill="none"/>
  </g>
</svg>
